#N canvas 548 155 870 538 10;
#X obj 60 53 sig~ 3;
#X floatatom 97 163 5 0 0 0 - - -;
#X floatatom 202 165 5 0 0 0 - - -;
#X obj 97 98 bigger~;
#X obj 202 55 sig~;
#X obj 202 96 bigger~ 5;
#X obj 299 89 metro 50;
#X obj 300 68 tgl 15 0 empty empty empty 17 7 0 10 -262144 -1 -1 1
1;
#X obj 299 16 loadbang;
#X msg 300 42 1;
#X obj 202 140 snapshot~;
#X obj 97 136 snapshot~;
#X floatatom 204 32 5 0 0 0 - - -;
#X floatatom 56 27 5 0 0 0 - - -;
#X obj 136 53 sig~ 5;
#X msg 387 205 \; pd dsp 1;
#X msg 387 242 \; pd dsp 0;
#X text 461 245 Don't forget to start DSP;
#X obj 59 220 sig~ 3;
#X floatatom 96 330 5 0 0 0 - - -;
#X floatatom 201 332 5 0 0 0 - - -;
#X obj 201 222 sig~;
#X obj 201 307 snapshot~;
#X obj 96 303 snapshot~;
#X floatatom 203 199 5 0 0 0 - - -;
#X floatatom 55 194 5 0 0 0 - - -;
#X obj 135 220 sig~ 5;
#X obj 96 265 smaller~;
#X obj 201 263 smaller~ 5;
#X obj 63 379 sig~ 3;
#X floatatom 100 489 5 0 0 0 - - -;
#X floatatom 205 491 5 0 0 0 - - -;
#X obj 205 381 sig~;
#X obj 205 466 snapshot~;
#X obj 100 462 snapshot~;
#X floatatom 207 358 5 0 0 0 - - -;
#X floatatom 59 353 5 0 0 0 - - -;
#X obj 139 379 sig~ 5;
#X obj 100 424 equal~;
#X obj 205 422 equal~ 5;
#X connect 0 0 3 0;
#X connect 3 0 11 0;
#X connect 4 0 5 0;
#X connect 5 0 10 0;
#X connect 6 0 10 0;
#X connect 6 0 11 0;
#X connect 6 0 22 0;
#X connect 6 0 23 0;
#X connect 6 0 33 0;
#X connect 6 0 34 0;
#X connect 7 0 6 0;
#X connect 8 0 9 0;
#X connect 9 0 7 0;
#X connect 10 0 2 0;
#X connect 11 0 1 0;
#X connect 12 0 4 0;
#X connect 13 0 0 0;
#X connect 14 0 3 1;
#X connect 18 0 27 0;
#X connect 21 0 28 0;
#X connect 22 0 20 0;
#X connect 23 0 19 0;
#X connect 24 0 21 0;
#X connect 25 0 18 0;
#X connect 26 0 27 1;
#X connect 27 0 23 0;
#X connect 28 0 22 0;
#X connect 29 0 38 0;
#X connect 32 0 39 0;
#X connect 33 0 31 0;
#X connect 34 0 30 0;
#X connect 35 0 32 0;
#X connect 36 0 29 0;
#X connect 37 0 38 1;
#X connect 38 0 34 0;
#X connect 39 0 33 0;
