#N canvas 66 22 725 677 10;
#N canvas 0 22 450 300 (subpatch) 0;
#X array behavior 44100 float 2;
#X coords 0 1 44100 0 640 240 1;
#X restore 26 383 graph;
#X obj 263 71 loadbang;
#X msg 264 103 0;
#X floatatom 264 128 5 0 0 0 - - -;
#X obj 162 303 tabwrite~ behavior;
#X text 98 65 Frequency;
#X obj 179 265 r record;
#X obj 36 144 unsig~ 30;
#X obj 36 189 vsl 15 128 0 1 0 0 empty empty empty 0 -9 0 10 -262144
-1 -1 1188 1;
#X obj 103 133 sig~ 440;
#X obj 320 301 output~;
#X obj 339 261 phasor~;
#X floatatom 103 91 5 0 0 0 - - -;
#X obj 339 208 *~ 440;
#X obj 339 233 +~ 880;
#X text 17 623 2.5;
#X text 661 624 4;
#X text 324 96 > 2 ... expr;
#X text 323 83 = 1 ... linear;
#X text 323 71 = 0 ... no intp;
#X text 461 641 feigenbaum constant;
#X text 496 624 3.56995;
#X floatatom 399 206 5 0 0 0 - - -;
#X floatatom 393 175 5 0 0 0 - - -;
#X obj 161 174 crand~;
#X msg 450 203 \; pd dsp 1 \; record bang \;;
#X obj 447 100 expr pow($f1 \, 3);
#X floatatom 446 66 5 0 0 0 - - -;
#X floatatom 449 124 5 0 0 0 - - -;
#X text 47 17 Curved randomizer;
#X connect 1 0 2 0;
#X connect 2 0 3 0;
#X connect 3 0 24 1;
#X connect 6 0 4 0;
#X connect 7 0 8 0;
#X connect 9 0 24 0;
#X connect 11 0 10 0;
#X connect 11 0 10 1;
#X connect 12 0 9 0;
#X connect 13 0 14 0;
#X connect 14 0 11 0;
#X connect 22 0 14 1;
#X connect 23 0 13 1;
#X connect 24 0 7 0;
#X connect 24 0 13 0;
#X connect 24 0 4 0;
#X connect 26 0 28 0;
#X connect 27 0 26 0;
#X connect 28 0 3 0;
