#N canvas 309 22 547 413 10;
#X text 47 17 Cycle map;
#X obj 161 176 decay~;
#X obj 36 144 unsig~ 30;
#X obj 320 301 output~;
#X floatatom 155 126 5 0 0 0 - - -;
#X obj 38 224 vsl 15 128 0 127 0 0 empty empty empty 0 -9 0 10 -262144
-1 -1 0 1;
#X floatatom 200 134 5 0 0 0 - - -;
#X obj 161 224 print~;
#X obj 118 203 bng 15 250 50 0 empty empty empty 17 7 0 10 -262144
-1 -1;
#X obj 110 119 del 20;
#X connect 1 0 2 0;
#X connect 1 0 7 0;
#X connect 2 0 5 0;
#X connect 4 0 1 0;
#X connect 4 0 9 0;
#X connect 6 0 1 1;
#X connect 8 0 7 0;
#X connect 9 0 8 0;
