#N canvas 66 22 559 413 10;
#X obj 162 303 tabwrite~ behavior;
#X text 98 65 Frequency;
#X obj 179 265 r record;
#X obj 36 144 unsig~ 30;
#X obj 36 189 vsl 15 128 0 1 0 0 empty empty empty 0 -9 0 10 -262144
-1 -1 0 1;
#X obj 320 301 output~;
#X obj 339 261 phasor~;
#X floatatom 103 91 5 0 0 0 - - -;
#X obj 339 208 *~ 440;
#X obj 339 233 +~ 880;
#X floatatom 399 206 5 0 0 0 - - -;
#X floatatom 393 175 5 0 0 0 - - -;
#X text 47 17 Dyadic map;
#X obj 187 177 dyadic~;
#X obj 273 81 loadbang;
#X msg 274 113 0;
#X floatatom 274 138 5 0 0 0 - - -;
#X obj 196 79 r ramp;
#X text 321 141 > 2 ... expr;
#X text 320 128 = 1 ... linear;
#X text 320 116 = 0 ... no intp;
#X text 207 59 2-4;
#X text 202 43 Coef;
#X obj 196 130 line~ 0.34;
#X floatatom 207 104 10 0 0 0 - - -;
#X floatatom 60 185 5 0 0 0 - - -;
#X msg 359 40 \; pd dsp 1 \; ramp 0 \, 1 1000 record bang \;;
#X obj 104 133 sig~ 22050;
#X text 249 177 round off error?;
#X connect 2 0 0 0;
#X connect 3 0 4 0;
#X connect 3 0 25 0;
#X connect 6 0 5 0;
#X connect 6 0 5 1;
#X connect 7 0 27 0;
#X connect 8 0 9 0;
#X connect 9 0 6 0;
#X connect 10 0 9 1;
#X connect 11 0 8 1;
#X connect 13 0 0 0;
#X connect 13 0 3 0;
#X connect 13 0 8 0;
#X connect 14 0 15 0;
#X connect 15 0 16 0;
#X connect 16 0 13 2;
#X connect 17 0 23 0;
#X connect 23 0 13 1;
#X connect 24 0 23 0;
#X connect 27 0 13 0;
