#N canvas 548 155 870 538 10;
#X obj 382 197 metro 50;
#X obj 383 176 tgl 15 0 empty empty empty 17 7 0 10 -262144 -1 -1 1
1;
#X obj 382 124 loadbang;
#X msg 383 150 1;
#X msg 440 18 \; pd dsp 1;
#X msg 440 55 \; pd dsp 0;
#X text 514 58 Don't forget to start DSP;
#X obj 270 339 snapshot~;
#X obj 336 339 snapshot~;
#X obj 401 339 snapshot~;
#X floatatom 268 372 5 0 0 0 - - -;
#X floatatom 337 374 5 0 0 0 - - -;
#X floatatom 401 374 5 0 0 0 - - -;
#X obj 463 340 snapshot~;
#X floatatom 462 374 5 0 0 0 - - -;
#X obj 524 340 snapshot~;
#X obj 590 340 snapshot~;
#X obj 660 338 snapshot~;
#X floatatom 522 373 5 0 0 0 - - -;
#X floatatom 591 375 5 0 0 0 - - -;
#X floatatom 665 375 5 0 0 0 - - -;
#X obj 688 172 noise~;
#X obj 97 149 noise~;
#X obj 97 193 *~ 0.1;
#X obj 57 232 gate~;
#X obj 28 185 sig~;
#X obj 49 325 dac~;
#X obj 26 158 tgl 15 0 empty empty empty 17 7 0 10 -262144 -1 -1 0
1;
#X obj 531 117 phasor~ 0.2;
#X obj 557 181 +~ 1;
#X text 21 124 1 as a switch;
#X text 247 151 2 as a router;
#X obj 727 336 snapshot~;
#X floatatom 732 373 5 0 0 0 - - -;
#X obj 603 244 gate~ 8;
#X obj 535 150 *~ 8;
#X text 446 428 useful for checking multichannel system;
#X obj 149 470 gate~ 2;
#X obj 130 366 bigger~ 0.5;
#X obj 149 503 dac~ 1 2;
#X obj 197 415 phasor~ 444;
#X obj 207 451 *~ 0.1;
#X obj 136 338 abs~;
#X obj 139 298 rand~;
#X obj 143 257 sig~ 5;
#X obj 135 413 +~ 1;
#X text 19 448 3 random A-B panner;
#X connect 0 0 7 0;
#X connect 0 0 8 0;
#X connect 0 0 9 0;
#X connect 0 0 13 0;
#X connect 0 0 15 0;
#X connect 0 0 16 0;
#X connect 0 0 17 0;
#X connect 0 0 32 0;
#X connect 1 0 0 0;
#X connect 2 0 3 0;
#X connect 3 0 1 0;
#X connect 7 0 10 0;
#X connect 8 0 11 0;
#X connect 9 0 12 0;
#X connect 13 0 14 0;
#X connect 15 0 18 0;
#X connect 16 0 19 0;
#X connect 17 0 20 0;
#X connect 21 0 34 1;
#X connect 22 0 23 0;
#X connect 23 0 24 1;
#X connect 24 0 26 0;
#X connect 24 0 26 1;
#X connect 25 0 24 0;
#X connect 27 0 25 0;
#X connect 28 0 35 0;
#X connect 29 0 34 0;
#X connect 32 0 33 0;
#X connect 34 0 7 0;
#X connect 34 1 8 0;
#X connect 34 2 9 0;
#X connect 34 3 13 0;
#X connect 34 4 15 0;
#X connect 34 5 16 0;
#X connect 34 6 17 0;
#X connect 34 7 32 0;
#X connect 35 0 29 0;
#X connect 37 0 39 0;
#X connect 37 1 39 1;
#X connect 38 0 45 0;
#X connect 40 0 41 0;
#X connect 41 0 37 1;
#X connect 42 0 38 0;
#X connect 43 0 42 0;
#X connect 44 0 43 0;
#X connect 45 0 37 0;
