#N canvas 309 22 725 677 10;
#N canvas 0 22 450 300 (subpatch) 0;
#X array behavior 44100 float 2;
#X coords 0 6.28 44100 0 640 240 1;
#X restore 26 383 graph;
#X obj 294 74 loadbang;
#X msg 295 106 0;
#X floatatom 295 131 5 0 0 0 - - -;
#X obj 162 303 tabwrite~ behavior;
#X text 57 61 Frequency;
#X obj 179 265 r record;
#X obj 36 144 unsig~ 30;
#X obj 36 189 vsl 15 128 0 1 0 0 empty empty empty 0 -9 0 10 -262144
-1 -1 12700 1;
#X floatatom 199 94 5 0 0 0 - - -;
#X obj 320 301 output~;
#X obj 339 261 phasor~;
#X floatatom 82 87 5 0 0 0 - - -;
#X obj 339 208 *~ 440;
#X obj 339 233 +~ 880;
#X text 336 132 > 2 ... expr;
#X text 335 119 = 1 ... linear;
#X text 335 107 = 0 ... no intp;
#X floatatom 399 206 5 0 0 0 - - -;
#X floatatom 393 175 5 0 0 0 - - -;
#X obj 161 174 cycle~;
#X text 47 17 Cycle map;
#X obj 103 133 sig~ 1;
#X floatatom 143 98 5 0 0 0 - - -;
#X obj 216 133 line~ 0.1;
#X obj 155 136 line~ 0;
#X obj 154 59 r dp;
#X obj 224 63 r st;
#X msg 374 31 \; pd dsp 1 \; dp 0 \, 1 1000 \; st 0 \, 3.14 1000 \;
record bang \;;
#X connect 1 0 2 0;
#X connect 2 0 3 0;
#X connect 3 0 20 3;
#X connect 6 0 4 0;
#X connect 7 0 8 0;
#X connect 9 0 24 0;
#X connect 11 0 10 0;
#X connect 11 0 10 1;
#X connect 12 0 22 0;
#X connect 13 0 14 0;
#X connect 14 0 11 0;
#X connect 18 0 14 1;
#X connect 19 0 13 1;
#X connect 20 0 4 0;
#X connect 20 0 7 0;
#X connect 20 0 13 0;
#X connect 22 0 20 0;
#X connect 23 0 25 0;
#X connect 24 0 20 2;
#X connect 25 0 20 1;
#X connect 26 0 25 0;
#X connect 27 0 24 0;
